<mxfile host="app.diagrams.net" modified="2024-01-23T19:18:04.360Z" agent="Mozilla/5.0 (Windows NT 10.0; Win64; x64) AppleWebKit/537.36 (KHTML, like Gecko) Chrome/120.0.0.0 Safari/537.36" version="22.1.22" etag="67wok5wgyoavcV8CdNcJ" type="github">
  <diagram name="Page-1" id="H2w6nwaS9ElEvqSC7E_b">
    <mxGraphModel>
      <root>
        <mxCell id="0" />
        <mxCell id="1" parent="0" />
      </root>
    </mxGraphModel>
  </diagram>
</mxfile>
